HIERARCHY
ROOT Hips
{
	OFFSET 0.000000 0.000000 0.000000
	CHANNELS 6 Xposition Yposition Zposition Yrotation Xrotation Zrotation
	JOINT Chest
	{
		OFFSET 0.000000 -0.009281 11.569106
		CHANNELS 3 Yrotation Xrotation Zrotation
		JOINT Chest2
		{
			OFFSET -0.000000 0.016865 9.269641
			CHANNELS 3 Yrotation Xrotation Zrotation
			JOINT Chest3
			{
				OFFSET -0.000000 0.000001 8.374491
				CHANNELS 3 Yrotation Xrotation Zrotation
				JOINT Chest4
				{
					OFFSET -0.000000 0.000001 8.374493
					CHANNELS 3 Yrotation Xrotation Zrotation
					JOINT Neck
					{
						OFFSET -0.000000 0.000002 12.152554
						CHANNELS 3 Yrotation Xrotation Zrotation
						JOINT Head
						{
							OFFSET -0.000000 0.040101 7.802319
							CHANNELS 3 Yrotation Xrotation Zrotation
							End Site
							{
								OFFSET -0.000000 0.020947 14.853096
							}
						}
					}
					JOINT RightCollar
					{
						OFFSET 2.894404 0.000001 6.791374
						CHANNELS 3 Yrotation Xrotation Zrotation
						JOINT RightShoulder
						{
							OFFSET 13.574684 0.000001 0.000000
							CHANNELS 3 Yrotation Xrotation Zrotation
							JOINT RightElbow
							{
								OFFSET 23.923903 0.000002 0.000000
								CHANNELS 3 Yrotation Xrotation Zrotation
								JOINT RightWrist
								{
									OFFSET 19.846718 0.012767 0.000000
									CHANNELS 3 Yrotation Xrotation Zrotation
									End Site
									{
										OFFSET 14.973145 0.000001 0.000000
									}
								}
							}
						}
					}
					JOINT LeftCollar
					{
						OFFSET -2.894404 0.000001 6.791374
						CHANNELS 3 Yrotation Xrotation Zrotation
						JOINT LeftShoulder
						{
							OFFSET -13.574684 -0.000001 0.000000
							CHANNELS 3 Yrotation Xrotation Zrotation
							JOINT LeftElbow
							{
								OFFSET -23.923903 -0.000002 0.000000
								CHANNELS 3 Yrotation Xrotation Zrotation
								JOINT LeftWrist
								{
									OFFSET -19.846718 0.012763 0.000000
									CHANNELS 3 Yrotation Xrotation Zrotation
									End Site
									{
										OFFSET -14.973145 -0.000001 0.000000
									}
								}
							}
						}
					}
				}
			}
		}
	}
	JOINT RightHip
	{
		OFFSET 9.469263 0.004643 0.045487
		CHANNELS 3 Yrotation Xrotation Zrotation
		JOINT RightKnee
		{
			OFFSET 0.000000 0.002661 -40.478676
			CHANNELS 3 Yrotation Xrotation Zrotation
			JOINT RightAnkle
			{
				OFFSET 0.000000 0.049106 -35.224068
				CHANNELS 3 Yrotation Xrotation Zrotation
				JOINT RightToe
				{
					OFFSET -0.000001 12.539529 -6.151390
					CHANNELS 3 Yrotation Xrotation Zrotation
					End Site
					{
						OFFSET -0.000001 5.044994 -1.291870
					}
				}
			}
		}
	}
	JOINT LeftHip
	{
		OFFSET -9.469263 0.004641 0.045487
		CHANNELS 3 Yrotation Xrotation Zrotation
		JOINT LeftKnee
		{
			OFFSET 0.000000 0.002661 -40.478676
			CHANNELS 3 Yrotation Xrotation Zrotation
			JOINT LeftAnkle
			{
				OFFSET 0.000000 0.049106 -35.224068
				CHANNELS 3 Yrotation Xrotation Zrotation
				JOINT LeftToe
				{
					OFFSET -0.000001 12.539529 -6.151390
					CHANNELS 3 Yrotation Xrotation Zrotation
					End Site
					{
						OFFSET -0.000001 5.044994 -1.291870
					}
				}
			}
		}
	}
}
MOTION
Frames: 9
Frame Time: 0.016667
50.338783 43.531731 83.079224 -3.655653 0.697444 -120.081993 -1.318131 -3.970407 3.017642 -0.592195 -1.747983 1.358538 -0.592195 -1.747983 1.358538 -0.440228 -1.312313 1.017133 0.835927 -12.804055 -3.835947 0.000275 12.356015 -6.946496 9.524368 5.440716 -1.434623 42.780402 -15.140530 -14.545620 -23.581892 -61.483519 83.919816 -41.922632 39.205197 51.107847 -8.334456 6.030769 -6.369603 -40.115320 -10.673456 19.454549 -3.535806 -65.125178 -59.657352 29.523660 15.647777 -74.344765 -7.918551 3.878483 -13.672820 8.265642 -19.084778 -25.915385 -4.329830 8.821000 -2.336925 -0.169425 0.210316 -0.042263 0.610502 -4.250385 13.569664 -0.024300 -3.404959 12.043434 -0.634551 2.973765 7.854675 0.697864 0.315813 0.038714 
50.569225 43.651043 83.101799 -3.493834 0.645309 -120.410662 -1.252431 -3.820864 2.989879 -0.587542 -1.689602 1.327001 -0.587542 -1.689602 1.326999 -0.436957 -1.268485 0.993551 0.804365 -12.860807 -3.678886 0.008005 12.254909 -6.658945 9.635356 5.824959 -1.376453 42.685684 -15.083221 -14.939744 -23.554215 -61.708662 83.987483 -41.753670 39.013228 51.134365 -8.425378 6.102020 -6.407095 -40.058298 -10.869300 19.594600 -3.519933 -65.176677 -59.629628 29.469340 15.935432 -74.464123 -7.778860 3.942263 -12.845806 8.106703 -18.846719 -25.656660 -4.218695 8.502076 -3.031149 -0.083937 0.226129 -0.007845 0.552244 -4.400493 14.307878 -0.015403 -3.222114 12.108310 -0.938230 3.109885 7.573776 0.846461 0.315334 0.031745 
50.805546 43.750484 83.133186 -3.418874 0.540294 -120.729987 -1.220590 -3.794302 2.989015 -0.583307 -1.683103 1.305215 -0.583307 -1.683102 1.305221 -0.433856 -1.263580 0.977240 0.761397 -12.824972 -3.552079 -0.023126 12.323826 -6.437044 9.756307 5.926979 -1.352104 42.638719 -14.986697 -15.073572 -23.634637 -61.719741 84.165491 -41.695265 38.978909 51.137449 -8.361898 5.955011 -6.477163 -40.145093 -10.993271 19.527070 -3.662788 -65.027226 -59.318342 29.417389 16.214522 -74.598185 -7.677831 3.811470 -12.422364 7.917251 -18.523283 -24.759509 -4.195298 8.106828 -3.801969 -0.022132 0.252895 0.017173 0.445457 -4.622917 15.262116 0.069777 -3.051754 12.037534 -1.240376 3.256142 7.205785 0.951756 0.288332 0.037818 
51.051243 43.810268 83.159950 -3.402636 0.402737 -120.983660 -1.190665 -3.856726 2.964033 -0.571030 -1.710977 1.294093 -0.571030 -1.710977 1.294094 -0.424620 -1.284451 0.968900 0.704673 -12.707838 -3.463900 -0.100200 12.541575 -6.297119 9.780088 5.781044 -1.451330 42.699454 -14.945079 -14.977066 -23.807091 -61.504037 84.382240 -41.710326 39.056364 51.143230 -8.222972 5.694829 -6.574530 -40.294831 -11.041859 19.343299 -3.727859 -64.773334 -59.094476 29.413185 16.307737 -74.621149 -7.637444 3.549870 -12.556294 7.711326 -18.258395 -24.241952 -4.037916 7.798295 -3.698626 -0.020387 0.304095 0.013174 0.382658 -4.893367 16.046797 0.138603 -2.960088 11.958249 -1.532268 3.389917 7.084898 0.993931 0.302633 0.034876 
51.286278 43.822304 83.174469 -3.404716 0.302228 -121.170643 -1.170250 -3.939053 2.916564 -0.555021 -1.748201 1.290468 -0.555021 -1.748201 1.290469 -0.412544 -1.312331 0.966189 0.645599 -12.547104 -3.412793 -0.199176 12.838840 -6.230325 9.743220 5.526752 -1.539293 42.789387 -14.833161 -14.840794 -23.948479 -61.245207 84.510272 -41.731127 39.131632 51.154524 -8.086518 5.458114 -6.645544 -40.372852 -11.011945 19.127048 -3.578557 -64.624163 -59.223109 29.492378 16.203989 -74.473487 -7.647156 3.314564 -12.951080 7.511473 -18.151503 -24.210977 -3.763999 7.663035 -2.963024 -0.056495 0.334435 -0.004847 0.357727 -5.105312 16.475726 0.138699 -2.988311 12.023065 -1.762532 3.567960 6.967201 0.971235 0.308668 0.017198 
51.457264 43.808762 83.176620 -3.363690 0.266621 -121.339868 -1.155021 -3.975357 2.880611 -0.537847 -1.773195 1.292477 -0.537847 -1.773195 1.292476 -0.399604 -1.331041 0.967721 0.591701 -12.384243 -3.388346 -0.299615 13.139363 -6.212422 9.674425 5.312344 -1.558331 42.841754 -14.634940 -14.782257 -24.025474 -61.092552 84.544758 -41.706532 39.150378 51.188873 -8.028034 5.366134 -6.689360 -40.306889 -10.924257 18.985930 -3.479936 -64.675177 -59.457370 29.619908 15.969426 -74.234239 -7.665636 3.237285 -13.068895 7.431296 -18.148263 -24.373762 -3.508939 7.613118 -2.451248 -0.111725 0.342479 -0.016573 0.372293 -5.170667 16.558042 0.055593 -3.122446 12.329584 -1.913477 3.767841 6.977947 0.903647 0.301517 -0.005512 
51.544834 43.808449 83.168976 -3.296358 0.288488 -121.528613 -1.167303 -3.963173 2.878863 -0.526646 -1.781448 1.299484 -0.526646 -1.781449 1.299484 -0.391166 -1.337215 0.973000 0.551987 -12.250800 -3.380247 -0.378583 13.385364 -6.218829 9.634558 5.319620 -1.548990 42.837464 -14.551377 -14.855113 -24.046962 -61.076474 84.520073 -41.669300 39.146915 51.237648 -8.058703 5.489266 -6.692542 -40.167800 -10.900628 19.002414 -3.590480 -64.840263 -59.544626 29.716801 15.675704 -73.997662 -7.709186 3.345588 -12.761068 7.486004 -18.247224 -24.538778 -3.304134 7.605766 -2.377204 -0.180110 0.329911 -0.022507 0.395016 -5.110097 16.423881 -0.083973 -3.299663 12.785248 -1.983196 3.941280 7.116684 0.810183 0.283046 -0.021018 
51.567547 43.832333 83.156113 -3.246153 0.330094 -121.719886 -1.203513 -3.937871 2.884767 -0.524853 -1.779638 1.305027 -0.524853 -1.779638 1.305026 -0.389809 -1.335857 0.977164 0.526231 -12.159824 -3.375209 -0.430189 13.553115 -6.223682 9.633768 5.443724 -1.513957 42.780176 -14.598182 -14.957037 -24.044995 -61.132529 84.492281 -41.656730 39.160606 51.277799 -8.125858 5.620810 -6.676853 -40.066617 -10.866857 19.099693 -3.814516 -64.980644 -59.457391 29.724751 15.472272 -73.862724 -7.757726 3.534351 -12.359506 7.547479 -18.407508 -24.626913 -3.131292 7.624305 -2.489796 -0.239639 0.295669 -0.031475 0.401064 -5.017702 16.219546 -0.221901 -3.451885 13.204409 -2.006568 4.066194 7.265959 0.710958 0.255458 -0.026413 
51.562691 43.864601 83.142998 -3.227309 0.354948 -121.894670 -1.254830 -3.931216 2.889861 -0.534868 -1.777618 1.308656 -0.534868 -1.777618 1.308657 -0.397314 -1.334367 0.979859 0.521618 -12.098939 -3.376273 -0.442533 13.665832 -6.230059 9.652063 5.511288 -1.488254 42.733502 -14.661643 -14.957851 -24.042998 -61.207074 84.464804 -41.674915 39.207687 51.302791 -8.186261 5.669357 -6.669075 -40.063117 -10.813828 19.212812 -3.925740 -65.002746 -59.345485 29.657122 15.459563 -73.903022 -7.801875 3.685788 -12.131484 7.563962 -18.549931 -24.644096 -3.015414 7.653174 -2.471198 -0.257304 0.242417 -0.042258 0.399224 -4.964353 16.119412 -0.325649 -3.539081 13.415063 -2.007246 4.139034 7.389703 0.613440 0.221916 -0.024959 
